<mxfile host="65bd71144e">
    <diagram id="Kz0ywYGAHpizFOXHB_ZU" name="Page-1">
        <mxGraphModel dx="644" dy="515" grid="1" gridSize="10" guides="1" tooltips="1" connect="1" arrows="1" fold="1" page="1" pageScale="1" pageWidth="827" pageHeight="1169" math="0" shadow="0">
            <root>
                <mxCell id="0"/>
                <mxCell id="1" parent="0"/>
                <mxCell id="3" value="s" style="rounded=0;whiteSpace=wrap;html=1;fillColor=#FFFFFF;strokeColor=none;connectable=0;container=1;collapsible=0;recursiveResize=0;movable=0;rotatable=0;cloneable=0;deletable=0;" parent="1" vertex="1">
                    <mxGeometry x="290" y="100" width="550" height="1530" as="geometry"/>
                </mxCell>
                <mxCell id="43" value="&lt;font color=&quot;#ffff00&quot;&gt;1&lt;/font&gt;" style="ellipse;whiteSpace=wrap;html=1;aspect=fixed;fontFamily=Helvetica;fontSize=10;fontColor=#ffffff;fillColor=#a20025;strokeColor=#6F0000;" parent="3" vertex="1">
                    <mxGeometry x="230" y="765.25" width="19.5" height="19.5" as="geometry"/>
                </mxCell>
                <mxCell id="204" style="edgeStyle=orthogonalEdgeStyle;shape=connector;rounded=1;html=1;exitX=0.5;exitY=1;exitDx=0;exitDy=0;entryX=0.5;entryY=0;entryDx=0;entryDy=0;labelBackgroundColor=default;fontFamily=Helvetica;fontSize=16;fontColor=#000000;endArrow=blockThin;endFill=1;strokeColor=#000000;strokeWidth=1;" edge="1" parent="3" source="164" target="203">
                    <mxGeometry relative="1" as="geometry"/>
                </mxCell>
                <mxCell id="164" value="姬万" style="rounded=1;whiteSpace=wrap;html=1;fillColor=#E6E6E6;fontColor=#000000;fontSize=16;strokeColor=none;strokeWidth=2;" parent="3" vertex="1">
                    <mxGeometry x="250.5" y="40" width="50" height="30" as="geometry"/>
                </mxCell>
                <mxCell id="165" value="&lt;div style=&quot;font-size: 14px&quot;&gt;&lt;div style=&quot;font-size: 14px&quot;&gt;&lt;div style=&quot;font-size: 14px&quot;&gt;&lt;div style=&quot;font-size: 14px&quot;&gt;献子&lt;/div&gt;&lt;/div&gt;&lt;/div&gt;&lt;/div&gt;" style="text;html=1;align=center;verticalAlign=middle;resizable=0;points=[];autosize=1;strokeColor=none;fillColor=none;fontSize=14;fontColor=#000000;" parent="3" vertex="1">
                    <mxGeometry x="298.5" y="285" width="40" height="20" as="geometry"/>
                </mxCell>
                <mxCell id="206" style="edgeStyle=orthogonalEdgeStyle;shape=connector;rounded=1;html=1;exitX=0.5;exitY=1;exitDx=0;exitDy=0;labelBackgroundColor=default;fontFamily=Helvetica;fontSize=16;fontColor=#000000;endArrow=blockThin;endFill=1;strokeColor=#000000;strokeWidth=1;" edge="1" parent="3" source="203" target="205">
                    <mxGeometry relative="1" as="geometry"/>
                </mxCell>
                <mxCell id="203" value="姬赇伯" style="rounded=1;whiteSpace=wrap;html=1;fillColor=#E6E6E6;fontColor=#000000;fontSize=16;strokeColor=none;strokeWidth=2;" vertex="1" parent="3">
                    <mxGeometry x="245" y="100" width="60" height="30" as="geometry"/>
                </mxCell>
                <mxCell id="208" style="edgeStyle=orthogonalEdgeStyle;shape=connector;rounded=1;html=1;exitX=0.5;exitY=1;exitDx=0;exitDy=0;labelBackgroundColor=default;fontFamily=Helvetica;fontSize=16;fontColor=#000000;endArrow=blockThin;endFill=1;strokeColor=#000000;strokeWidth=1;" edge="1" parent="3" source="205" target="207">
                    <mxGeometry relative="1" as="geometry"/>
                </mxCell>
                <mxCell id="205" value="姬简" style="rounded=1;whiteSpace=wrap;html=1;fillColor=#E6E6E6;fontColor=#000000;fontSize=16;strokeColor=none;strokeWidth=2;" vertex="1" parent="3">
                    <mxGeometry x="250.5" y="160" width="50" height="30" as="geometry"/>
                </mxCell>
                <mxCell id="210" style="edgeStyle=orthogonalEdgeStyle;shape=connector;rounded=1;html=1;exitX=0.5;exitY=1;exitDx=0;exitDy=0;labelBackgroundColor=default;fontFamily=Helvetica;fontSize=16;fontColor=#000000;endArrow=blockThin;endFill=1;strokeColor=#000000;strokeWidth=1;" edge="1" parent="3" source="207" target="209">
                    <mxGeometry relative="1" as="geometry"/>
                </mxCell>
                <mxCell id="207" value="姬舆" style="rounded=1;whiteSpace=wrap;html=1;fillColor=#E6E6E6;fontColor=#000000;fontSize=16;strokeColor=none;strokeWidth=2;" vertex="1" parent="3">
                    <mxGeometry x="250.5" y="220" width="50" height="30" as="geometry"/>
                </mxCell>
                <mxCell id="213" style="edgeStyle=orthogonalEdgeStyle;shape=connector;rounded=1;html=1;exitX=0.5;exitY=1;exitDx=0;exitDy=0;entryX=0.5;entryY=0;entryDx=0;entryDy=0;labelBackgroundColor=default;fontFamily=Helvetica;fontSize=16;fontColor=#000000;endArrow=blockThin;endFill=1;strokeColor=#000000;strokeWidth=1;" edge="1" parent="3" source="209" target="211">
                    <mxGeometry relative="1" as="geometry"/>
                </mxCell>
                <mxCell id="209" value="韩厥" style="rounded=1;whiteSpace=wrap;html=1;fillColor=#E6E6E6;fontColor=#000000;fontSize=16;strokeColor=none;strokeWidth=2;" vertex="1" parent="3">
                    <mxGeometry x="250.5" y="280" width="50" height="30" as="geometry"/>
                </mxCell>
                <mxCell id="216" style="edgeStyle=orthogonalEdgeStyle;shape=connector;rounded=1;html=1;exitX=0.5;exitY=1;exitDx=0;exitDy=0;labelBackgroundColor=default;fontFamily=Helvetica;fontSize=16;fontColor=#000000;endArrow=blockThin;endFill=1;strokeColor=#000000;strokeWidth=1;" edge="1" parent="3" source="211" target="214">
                    <mxGeometry relative="1" as="geometry"/>
                </mxCell>
                <mxCell id="211" value="韩起" style="rounded=1;whiteSpace=wrap;html=1;fillColor=#E6E6E6;fontColor=#000000;fontSize=16;strokeColor=none;strokeWidth=2;" vertex="1" parent="3">
                    <mxGeometry x="250.5" y="340" width="50" height="30" as="geometry"/>
                </mxCell>
                <mxCell id="212" value="&lt;div style=&quot;font-size: 14px&quot;&gt;&lt;div style=&quot;font-size: 14px&quot;&gt;&lt;div style=&quot;font-size: 14px&quot;&gt;&lt;div style=&quot;font-size: 14px&quot;&gt;宣子&lt;/div&gt;&lt;/div&gt;&lt;/div&gt;&lt;/div&gt;" style="text;html=1;align=center;verticalAlign=middle;resizable=0;points=[];autosize=1;strokeColor=none;fillColor=none;fontSize=14;fontColor=#000000;" vertex="1" parent="3">
                    <mxGeometry x="298.5" y="345" width="40" height="20" as="geometry"/>
                </mxCell>
                <mxCell id="219" style="edgeStyle=orthogonalEdgeStyle;shape=connector;rounded=1;html=1;exitX=0.5;exitY=1;exitDx=0;exitDy=0;entryX=0.5;entryY=0;entryDx=0;entryDy=0;labelBackgroundColor=default;fontFamily=Helvetica;fontSize=16;fontColor=#000000;endArrow=blockThin;endFill=1;strokeColor=#000000;strokeWidth=1;" edge="1" parent="3" source="214" target="217">
                    <mxGeometry relative="1" as="geometry"/>
                </mxCell>
                <mxCell id="214" value="韩须" style="rounded=1;whiteSpace=wrap;html=1;fillColor=#E6E6E6;fontColor=#000000;fontSize=16;strokeColor=none;strokeWidth=2;" vertex="1" parent="3">
                    <mxGeometry x="250.5" y="410" width="50" height="30" as="geometry"/>
                </mxCell>
                <mxCell id="215" value="&lt;div style=&quot;font-size: 14px&quot;&gt;&lt;div style=&quot;font-size: 14px&quot;&gt;&lt;div style=&quot;font-size: 14px&quot;&gt;&lt;div style=&quot;font-size: 14px&quot;&gt;贞子&lt;/div&gt;&lt;/div&gt;&lt;/div&gt;&lt;/div&gt;" style="text;html=1;align=center;verticalAlign=middle;resizable=0;points=[];autosize=1;strokeColor=none;fillColor=none;fontSize=14;fontColor=#000000;" vertex="1" parent="3">
                    <mxGeometry x="298.5" y="415" width="40" height="20" as="geometry"/>
                </mxCell>
                <mxCell id="222" style="edgeStyle=orthogonalEdgeStyle;shape=connector;rounded=1;html=1;exitX=0.5;exitY=1;exitDx=0;exitDy=0;labelBackgroundColor=default;fontFamily=Helvetica;fontSize=16;fontColor=#000000;endArrow=blockThin;endFill=1;strokeColor=#000000;strokeWidth=1;" edge="1" parent="3" source="217" target="220">
                    <mxGeometry relative="1" as="geometry"/>
                </mxCell>
                <mxCell id="217" value="韩不信" style="rounded=1;whiteSpace=wrap;html=1;fillColor=#E6E6E6;fontColor=#000000;fontSize=16;strokeColor=none;strokeWidth=2;" vertex="1" parent="3">
                    <mxGeometry x="245.5" y="480" width="60" height="30" as="geometry"/>
                </mxCell>
                <mxCell id="218" value="&lt;div style=&quot;font-size: 14px&quot;&gt;&lt;div style=&quot;font-size: 14px&quot;&gt;&lt;div style=&quot;font-size: 14px&quot;&gt;&lt;div style=&quot;font-size: 14px&quot;&gt;简子&lt;/div&gt;&lt;/div&gt;&lt;/div&gt;&lt;/div&gt;" style="text;html=1;align=center;verticalAlign=middle;resizable=0;points=[];autosize=1;strokeColor=none;fillColor=none;fontSize=14;fontColor=#000000;" vertex="1" parent="3">
                    <mxGeometry x="304.5" y="485" width="40" height="20" as="geometry"/>
                </mxCell>
                <mxCell id="225" style="edgeStyle=orthogonalEdgeStyle;shape=connector;rounded=1;html=1;exitX=0.5;exitY=1;exitDx=0;exitDy=0;labelBackgroundColor=default;fontFamily=Helvetica;fontSize=16;fontColor=#000000;endArrow=blockThin;endFill=1;strokeColor=#000000;strokeWidth=1;" edge="1" parent="3" source="220" target="223">
                    <mxGeometry relative="1" as="geometry"/>
                </mxCell>
                <mxCell id="220" value="韩庚" style="rounded=1;whiteSpace=wrap;html=1;fillColor=#E6E6E6;fontColor=#000000;fontSize=16;strokeColor=none;strokeWidth=2;" vertex="1" parent="3">
                    <mxGeometry x="250.5" y="550" width="50" height="30" as="geometry"/>
                </mxCell>
                <mxCell id="221" value="&lt;div style=&quot;font-size: 14px&quot;&gt;&lt;div style=&quot;font-size: 14px&quot;&gt;&lt;div style=&quot;font-size: 14px&quot;&gt;&lt;div style=&quot;font-size: 14px&quot;&gt;庄子&lt;/div&gt;&lt;/div&gt;&lt;/div&gt;&lt;/div&gt;" style="text;html=1;align=center;verticalAlign=middle;resizable=0;points=[];autosize=1;strokeColor=none;fillColor=none;fontSize=14;fontColor=#000000;" vertex="1" parent="3">
                    <mxGeometry x="298.5" y="555" width="40" height="20" as="geometry"/>
                </mxCell>
                <mxCell id="228" style="edgeStyle=orthogonalEdgeStyle;shape=connector;rounded=1;html=1;exitX=0.5;exitY=1;exitDx=0;exitDy=0;entryX=0.5;entryY=0;entryDx=0;entryDy=0;labelBackgroundColor=default;fontFamily=Helvetica;fontSize=16;fontColor=#000000;endArrow=blockThin;endFill=1;strokeColor=#000000;strokeWidth=1;" edge="1" parent="3" source="223" target="226">
                    <mxGeometry relative="1" as="geometry"/>
                </mxCell>
                <mxCell id="223" value="韩虎" style="rounded=1;whiteSpace=wrap;html=1;fillColor=#E6E6E6;fontColor=#000000;fontSize=16;strokeColor=none;strokeWidth=2;" vertex="1" parent="3">
                    <mxGeometry x="250.5" y="620" width="50" height="30" as="geometry"/>
                </mxCell>
                <mxCell id="224" value="&lt;div style=&quot;font-size: 14px&quot;&gt;&lt;div style=&quot;font-size: 14px&quot;&gt;&lt;div style=&quot;font-size: 14px&quot;&gt;&lt;div style=&quot;font-size: 14px&quot;&gt;康子&lt;/div&gt;&lt;/div&gt;&lt;/div&gt;&lt;/div&gt;" style="text;html=1;align=center;verticalAlign=middle;resizable=0;points=[];autosize=1;strokeColor=none;fillColor=none;fontSize=14;fontColor=#000000;" vertex="1" parent="3">
                    <mxGeometry x="298.5" y="625" width="40" height="20" as="geometry"/>
                </mxCell>
                <mxCell id="231" style="edgeStyle=orthogonalEdgeStyle;shape=connector;rounded=1;html=1;exitX=0.5;exitY=1;exitDx=0;exitDy=0;labelBackgroundColor=default;fontFamily=Helvetica;fontSize=16;fontColor=#000000;endArrow=blockThin;endFill=1;strokeColor=#000000;strokeWidth=1;" edge="1" parent="3" source="226" target="229">
                    <mxGeometry relative="1" as="geometry"/>
                </mxCell>
                <mxCell id="226" value="韩启章" style="rounded=1;whiteSpace=wrap;html=1;fillColor=#E6E6E6;fontColor=#000000;fontSize=16;strokeColor=none;strokeWidth=2;" vertex="1" parent="3">
                    <mxGeometry x="245.5" y="690" width="60" height="30" as="geometry"/>
                </mxCell>
                <mxCell id="227" value="&lt;div style=&quot;font-size: 14px&quot;&gt;&lt;div style=&quot;font-size: 14px&quot;&gt;&lt;div style=&quot;font-size: 14px&quot;&gt;&lt;div style=&quot;font-size: 14px&quot;&gt;武子&lt;/div&gt;&lt;/div&gt;&lt;/div&gt;&lt;/div&gt;" style="text;html=1;align=center;verticalAlign=middle;resizable=0;points=[];autosize=1;strokeColor=none;fillColor=none;fontSize=14;fontColor=#000000;" vertex="1" parent="3">
                    <mxGeometry x="304.5" y="695" width="40" height="20" as="geometry"/>
                </mxCell>
                <mxCell id="235" style="edgeStyle=orthogonalEdgeStyle;shape=connector;rounded=1;html=1;exitX=0.5;exitY=1;exitDx=0;exitDy=0;labelBackgroundColor=default;fontFamily=Helvetica;fontSize=16;fontColor=#000000;endArrow=blockThin;endFill=1;strokeColor=#000000;strokeWidth=1;" edge="1" parent="3" source="229" target="233">
                    <mxGeometry relative="1" as="geometry"/>
                </mxCell>
                <mxCell id="229" value="韩处" style="rounded=1;whiteSpace=wrap;html=1;fillColor=#E6E6E6;fontColor=#000000;fontSize=16;strokeColor=none;strokeWidth=2;" vertex="1" parent="3">
                    <mxGeometry x="250.5" y="760" width="50" height="30" as="geometry"/>
                </mxCell>
                <mxCell id="230" value="&lt;div style=&quot;font-size: 14px&quot;&gt;&lt;div style=&quot;font-size: 14px&quot;&gt;&lt;div style=&quot;font-size: 14px&quot;&gt;&lt;div style=&quot;font-size: 14px&quot;&gt;景侯&lt;/div&gt;&lt;/div&gt;&lt;/div&gt;&lt;/div&gt;" style="text;html=1;align=center;verticalAlign=middle;resizable=0;points=[];autosize=1;strokeColor=none;fillColor=none;fontSize=14;fontColor=#000000;" vertex="1" parent="3">
                    <mxGeometry x="298.5" y="765" width="40" height="20" as="geometry"/>
                </mxCell>
                <mxCell id="232" value="&lt;font color=&quot;#ffff00&quot;&gt;2&lt;/font&gt;" style="ellipse;whiteSpace=wrap;html=1;aspect=fixed;fontFamily=Helvetica;fontSize=10;fontColor=#ffffff;fillColor=#a20025;strokeColor=#6F0000;" vertex="1" parent="3">
                    <mxGeometry x="230" y="835.25" width="19.5" height="19.5" as="geometry"/>
                </mxCell>
                <mxCell id="239" style="edgeStyle=orthogonalEdgeStyle;shape=connector;rounded=1;html=1;exitX=0.5;exitY=1;exitDx=0;exitDy=0;labelBackgroundColor=default;fontFamily=Helvetica;fontSize=16;fontColor=#000000;endArrow=blockThin;endFill=1;strokeColor=#000000;strokeWidth=1;" edge="1" parent="3" source="233" target="237">
                    <mxGeometry relative="1" as="geometry"/>
                </mxCell>
                <mxCell id="233" value="韩取" style="rounded=1;whiteSpace=wrap;html=1;fillColor=#E6E6E6;fontColor=#000000;fontSize=16;strokeColor=none;strokeWidth=2;" vertex="1" parent="3">
                    <mxGeometry x="250.5" y="830" width="50" height="30" as="geometry"/>
                </mxCell>
                <mxCell id="234" value="&lt;div style=&quot;font-size: 14px&quot;&gt;&lt;div style=&quot;font-size: 14px&quot;&gt;&lt;div style=&quot;font-size: 14px&quot;&gt;&lt;div style=&quot;font-size: 14px&quot;&gt;武侯&lt;/div&gt;&lt;/div&gt;&lt;/div&gt;&lt;/div&gt;" style="text;html=1;align=center;verticalAlign=middle;resizable=0;points=[];autosize=1;strokeColor=none;fillColor=none;fontSize=14;fontColor=#000000;" vertex="1" parent="3">
                    <mxGeometry x="298.5" y="835" width="40" height="20" as="geometry"/>
                </mxCell>
                <mxCell id="236" value="&lt;font color=&quot;#ffff00&quot;&gt;3&lt;/font&gt;" style="ellipse;whiteSpace=wrap;html=1;aspect=fixed;fontFamily=Helvetica;fontSize=10;fontColor=#ffffff;fillColor=#a20025;strokeColor=#6F0000;" vertex="1" parent="3">
                    <mxGeometry x="230" y="905.25" width="19.5" height="19.5" as="geometry"/>
                </mxCell>
                <mxCell id="243" style="edgeStyle=orthogonalEdgeStyle;shape=connector;rounded=1;html=1;exitX=0.5;exitY=1;exitDx=0;exitDy=0;labelBackgroundColor=default;fontFamily=Helvetica;fontSize=16;fontColor=#000000;endArrow=blockThin;endFill=1;strokeColor=#000000;strokeWidth=1;" edge="1" parent="3" source="237" target="241">
                    <mxGeometry relative="1" as="geometry"/>
                </mxCell>
                <mxCell id="237" value="？" style="rounded=1;whiteSpace=wrap;html=1;fillColor=#E6E6E6;fontColor=#000000;fontSize=16;strokeColor=none;strokeWidth=2;" vertex="1" parent="3">
                    <mxGeometry x="250.5" y="900" width="50" height="30" as="geometry"/>
                </mxCell>
                <mxCell id="238" value="&lt;div style=&quot;font-size: 14px&quot;&gt;&lt;div style=&quot;font-size: 14px&quot;&gt;&lt;div style=&quot;font-size: 14px&quot;&gt;&lt;div style=&quot;font-size: 14px&quot;&gt;文侯&lt;/div&gt;&lt;/div&gt;&lt;/div&gt;&lt;/div&gt;" style="text;html=1;align=center;verticalAlign=middle;resizable=0;points=[];autosize=1;strokeColor=none;fillColor=none;fontSize=14;fontColor=#000000;" vertex="1" parent="3">
                    <mxGeometry x="298.5" y="905" width="40" height="20" as="geometry"/>
                </mxCell>
                <mxCell id="240" value="&lt;font color=&quot;#ffff00&quot;&gt;4&lt;/font&gt;" style="ellipse;whiteSpace=wrap;html=1;aspect=fixed;fontFamily=Helvetica;fontSize=10;fontColor=#ffffff;fillColor=#a20025;strokeColor=#6F0000;" vertex="1" parent="3">
                    <mxGeometry x="230" y="975.25" width="19.5" height="19.5" as="geometry"/>
                </mxCell>
                <mxCell id="247" style="edgeStyle=orthogonalEdgeStyle;shape=connector;rounded=1;html=1;exitX=0.5;exitY=1;exitDx=0;exitDy=0;labelBackgroundColor=default;fontFamily=Helvetica;fontSize=16;fontColor=#000000;endArrow=blockThin;endFill=1;strokeColor=#000000;strokeWidth=1;" edge="1" parent="3" source="241" target="245">
                    <mxGeometry relative="1" as="geometry"/>
                </mxCell>
                <mxCell id="241" value="？" style="rounded=1;whiteSpace=wrap;html=1;fillColor=#E6E6E6;fontColor=#000000;fontSize=16;strokeColor=none;strokeWidth=2;" vertex="1" parent="3">
                    <mxGeometry x="250.5" y="970" width="50" height="30" as="geometry"/>
                </mxCell>
                <mxCell id="242" value="&lt;div style=&quot;font-size: 14px&quot;&gt;&lt;div style=&quot;font-size: 14px&quot;&gt;&lt;div style=&quot;font-size: 14px&quot;&gt;&lt;div style=&quot;font-size: 14px&quot;&gt;哀侯&lt;/div&gt;&lt;/div&gt;&lt;/div&gt;&lt;/div&gt;" style="text;html=1;align=center;verticalAlign=middle;resizable=0;points=[];autosize=1;strokeColor=none;fillColor=none;fontSize=14;fontColor=#000000;" vertex="1" parent="3">
                    <mxGeometry x="298.5" y="975" width="40" height="20" as="geometry"/>
                </mxCell>
                <mxCell id="244" value="&lt;font color=&quot;#ffff00&quot;&gt;5&lt;/font&gt;" style="ellipse;whiteSpace=wrap;html=1;aspect=fixed;fontFamily=Helvetica;fontSize=10;fontColor=#ffffff;fillColor=#a20025;strokeColor=#6F0000;" vertex="1" parent="3">
                    <mxGeometry x="230" y="1045.25" width="19.5" height="19.5" as="geometry"/>
                </mxCell>
                <mxCell id="251" style="edgeStyle=orthogonalEdgeStyle;shape=connector;rounded=1;html=1;exitX=0.5;exitY=1;exitDx=0;exitDy=0;labelBackgroundColor=default;fontFamily=Helvetica;fontSize=16;fontColor=#000000;endArrow=blockThin;endFill=1;strokeColor=#000000;strokeWidth=1;" edge="1" parent="3" source="245" target="249">
                    <mxGeometry relative="1" as="geometry"/>
                </mxCell>
                <mxCell id="245" value="？" style="rounded=1;whiteSpace=wrap;html=1;fillColor=#E6E6E6;fontColor=#000000;fontSize=16;strokeColor=none;strokeWidth=2;" vertex="1" parent="3">
                    <mxGeometry x="250.5" y="1040" width="50" height="30" as="geometry"/>
                </mxCell>
                <mxCell id="246" value="&lt;div style=&quot;font-size: 14px&quot;&gt;&lt;div style=&quot;font-size: 14px&quot;&gt;&lt;div style=&quot;font-size: 14px&quot;&gt;&lt;div style=&quot;font-size: 14px&quot;&gt;懿侯&lt;/div&gt;&lt;/div&gt;&lt;/div&gt;&lt;/div&gt;" style="text;html=1;align=center;verticalAlign=middle;resizable=0;points=[];autosize=1;strokeColor=none;fillColor=none;fontSize=14;fontColor=#000000;" vertex="1" parent="3">
                    <mxGeometry x="298.5" y="1045" width="40" height="20" as="geometry"/>
                </mxCell>
                <mxCell id="248" value="&lt;font color=&quot;#ffff00&quot;&gt;6&lt;/font&gt;" style="ellipse;whiteSpace=wrap;html=1;aspect=fixed;fontFamily=Helvetica;fontSize=10;fontColor=#ffffff;fillColor=#a20025;strokeColor=#6F0000;" vertex="1" parent="3">
                    <mxGeometry x="230" y="1115.25" width="19.5" height="19.5" as="geometry"/>
                </mxCell>
                <mxCell id="255" style="edgeStyle=orthogonalEdgeStyle;shape=connector;rounded=1;html=1;exitX=0.5;exitY=1;exitDx=0;exitDy=0;labelBackgroundColor=default;fontFamily=Helvetica;fontSize=16;fontColor=#000000;endArrow=blockThin;endFill=1;strokeColor=#000000;strokeWidth=1;" edge="1" parent="3" source="249" target="253">
                    <mxGeometry relative="1" as="geometry"/>
                </mxCell>
                <mxCell id="249" value="？" style="rounded=1;whiteSpace=wrap;html=1;fillColor=#E6E6E6;fontColor=#000000;fontSize=16;strokeColor=none;strokeWidth=2;" vertex="1" parent="3">
                    <mxGeometry x="250.5" y="1110" width="50" height="30" as="geometry"/>
                </mxCell>
                <mxCell id="250" value="&lt;div style=&quot;font-size: 14px&quot;&gt;&lt;div style=&quot;font-size: 14px&quot;&gt;&lt;div style=&quot;font-size: 14px&quot;&gt;&lt;div style=&quot;font-size: 14px&quot;&gt;昭侯&lt;/div&gt;&lt;/div&gt;&lt;/div&gt;&lt;/div&gt;" style="text;html=1;align=center;verticalAlign=middle;resizable=0;points=[];autosize=1;strokeColor=none;fillColor=none;fontSize=14;fontColor=#000000;" vertex="1" parent="3">
                    <mxGeometry x="298.5" y="1115" width="40" height="20" as="geometry"/>
                </mxCell>
                <mxCell id="252" value="&lt;font color=&quot;#ffff00&quot;&gt;7&lt;/font&gt;" style="ellipse;whiteSpace=wrap;html=1;aspect=fixed;fontFamily=Helvetica;fontSize=10;fontColor=#ffffff;fillColor=#a20025;strokeColor=#6F0000;" vertex="1" parent="3">
                    <mxGeometry x="230" y="1185.25" width="19.5" height="19.5" as="geometry"/>
                </mxCell>
                <mxCell id="259" style="edgeStyle=orthogonalEdgeStyle;shape=connector;rounded=1;html=1;exitX=0.5;exitY=1;exitDx=0;exitDy=0;labelBackgroundColor=default;fontFamily=Helvetica;fontSize=16;fontColor=#000000;endArrow=blockThin;endFill=1;strokeColor=#000000;strokeWidth=1;" edge="1" parent="3" source="253" target="257">
                    <mxGeometry relative="1" as="geometry"/>
                </mxCell>
                <mxCell id="253" value="？" style="rounded=1;whiteSpace=wrap;html=1;fillColor=#E6E6E6;fontColor=#000000;fontSize=16;strokeColor=none;strokeWidth=2;" vertex="1" parent="3">
                    <mxGeometry x="250.5" y="1180" width="50" height="30" as="geometry"/>
                </mxCell>
                <mxCell id="254" value="&lt;div style=&quot;font-size: 14px&quot;&gt;&lt;div style=&quot;font-size: 14px&quot;&gt;&lt;div style=&quot;font-size: 14px&quot;&gt;&lt;div style=&quot;font-size: 14px&quot;&gt;宣惠王&lt;/div&gt;&lt;/div&gt;&lt;/div&gt;&lt;/div&gt;" style="text;html=1;align=center;verticalAlign=middle;resizable=0;points=[];autosize=1;strokeColor=none;fillColor=none;fontSize=14;fontColor=#000000;" vertex="1" parent="3">
                    <mxGeometry x="297.5" y="1185" width="60" height="20" as="geometry"/>
                </mxCell>
                <mxCell id="256" value="&lt;font color=&quot;#ffff00&quot;&gt;8&lt;/font&gt;" style="ellipse;whiteSpace=wrap;html=1;aspect=fixed;fontFamily=Helvetica;fontSize=10;fontColor=#ffffff;fillColor=#a20025;strokeColor=#6F0000;" vertex="1" parent="3">
                    <mxGeometry x="230" y="1255.25" width="19.5" height="19.5" as="geometry"/>
                </mxCell>
                <mxCell id="263" style="edgeStyle=orthogonalEdgeStyle;shape=connector;rounded=1;html=1;exitX=0.5;exitY=1;exitDx=0;exitDy=0;entryX=0.5;entryY=0;entryDx=0;entryDy=0;labelBackgroundColor=default;fontFamily=Helvetica;fontSize=16;fontColor=#000000;endArrow=blockThin;endFill=1;strokeColor=#000000;strokeWidth=1;" edge="1" parent="3" source="257" target="260">
                    <mxGeometry relative="1" as="geometry"/>
                </mxCell>
                <mxCell id="264" style="edgeStyle=orthogonalEdgeStyle;shape=connector;rounded=1;html=1;exitX=0.5;exitY=1;exitDx=0;exitDy=0;entryX=0.5;entryY=0;entryDx=0;entryDy=0;labelBackgroundColor=default;fontFamily=Helvetica;fontSize=16;fontColor=#000000;endArrow=blockThin;endFill=1;strokeColor=#000000;strokeWidth=1;" edge="1" parent="3" source="257" target="261">
                    <mxGeometry relative="1" as="geometry"/>
                </mxCell>
                <mxCell id="265" style="edgeStyle=orthogonalEdgeStyle;shape=connector;rounded=1;html=1;exitX=0.5;exitY=1;exitDx=0;exitDy=0;entryX=0.5;entryY=0;entryDx=0;entryDy=0;labelBackgroundColor=default;fontFamily=Helvetica;fontSize=16;fontColor=#000000;endArrow=blockThin;endFill=1;strokeColor=#000000;strokeWidth=1;" edge="1" parent="3" source="257" target="262">
                    <mxGeometry relative="1" as="geometry"/>
                </mxCell>
                <mxCell id="257" value="韩仓" style="rounded=1;whiteSpace=wrap;html=1;fillColor=#E6E6E6;fontColor=#000000;fontSize=16;strokeColor=none;strokeWidth=2;" vertex="1" parent="3">
                    <mxGeometry x="250.5" y="1250" width="50" height="30" as="geometry"/>
                </mxCell>
                <mxCell id="258" value="&lt;div style=&quot;font-size: 14px&quot;&gt;&lt;div style=&quot;font-size: 14px&quot;&gt;&lt;div style=&quot;font-size: 14px&quot;&gt;&lt;div style=&quot;font-size: 14px&quot;&gt;襄王&lt;/div&gt;&lt;/div&gt;&lt;/div&gt;&lt;/div&gt;" style="text;html=1;align=center;verticalAlign=middle;resizable=0;points=[];autosize=1;strokeColor=none;fillColor=none;fontSize=14;fontColor=#000000;" vertex="1" parent="3">
                    <mxGeometry x="298.5" y="1255" width="40" height="20" as="geometry"/>
                </mxCell>
                <mxCell id="260" value="韩婴" style="rounded=1;whiteSpace=wrap;html=1;fillColor=#E6E6E6;fontColor=#000000;fontSize=16;strokeColor=none;strokeWidth=2;" vertex="1" parent="3">
                    <mxGeometry x="145" y="1330" width="50" height="30" as="geometry"/>
                </mxCell>
                <mxCell id="271" style="edgeStyle=orthogonalEdgeStyle;shape=connector;rounded=1;html=1;exitX=0.5;exitY=1;exitDx=0;exitDy=0;labelBackgroundColor=default;fontFamily=Helvetica;fontSize=16;fontColor=#000000;endArrow=blockThin;endFill=1;strokeColor=#000000;strokeWidth=1;" edge="1" parent="3" source="261" target="269">
                    <mxGeometry relative="1" as="geometry"/>
                </mxCell>
                <mxCell id="261" value="韩咎" style="rounded=1;whiteSpace=wrap;html=1;fillColor=#E6E6E6;fontColor=#000000;fontSize=16;strokeColor=none;strokeWidth=2;" vertex="1" parent="3">
                    <mxGeometry x="250" y="1330" width="50" height="30" as="geometry"/>
                </mxCell>
                <mxCell id="262" value="韩虮虱" style="rounded=1;whiteSpace=wrap;html=1;fillColor=#E6E6E6;fontColor=#000000;fontSize=16;strokeColor=none;strokeWidth=2;" vertex="1" parent="3">
                    <mxGeometry x="356" y="1330" width="60" height="30" as="geometry"/>
                </mxCell>
                <mxCell id="266" value="&lt;font color=&quot;#ffff00&quot;&gt;9&lt;/font&gt;" style="ellipse;whiteSpace=wrap;html=1;aspect=fixed;fontFamily=Helvetica;fontSize=10;fontColor=#ffffff;fillColor=#a20025;strokeColor=#6F0000;" vertex="1" parent="3">
                    <mxGeometry x="230" y="1336.25" width="19.5" height="19.5" as="geometry"/>
                </mxCell>
                <mxCell id="267" value="&lt;div style=&quot;font-size: 14px&quot;&gt;&lt;div style=&quot;font-size: 14px&quot;&gt;&lt;div style=&quot;font-size: 14px&quot;&gt;&lt;div style=&quot;font-size: 14px&quot;&gt;釐王&lt;/div&gt;&lt;/div&gt;&lt;/div&gt;&lt;/div&gt;" style="text;html=1;align=center;verticalAlign=middle;resizable=0;points=[];autosize=1;strokeColor=none;fillColor=none;fontSize=14;fontColor=#000000;" vertex="1" parent="3">
                    <mxGeometry x="298.5" y="1336" width="40" height="20" as="geometry"/>
                </mxCell>
                <mxCell id="268" value="&lt;font color=&quot;#ffff00&quot;&gt;10&lt;/font&gt;" style="ellipse;whiteSpace=wrap;html=1;aspect=fixed;fontFamily=Helvetica;fontSize=10;fontColor=#ffffff;fillColor=#a20025;strokeColor=#6F0000;" vertex="1" parent="3">
                    <mxGeometry x="230" y="1405.25" width="19.5" height="19.5" as="geometry"/>
                </mxCell>
                <mxCell id="274" style="edgeStyle=orthogonalEdgeStyle;shape=connector;rounded=1;html=1;exitX=0.5;exitY=1;exitDx=0;exitDy=0;entryX=0.5;entryY=0;entryDx=0;entryDy=0;labelBackgroundColor=default;fontFamily=Helvetica;fontSize=16;fontColor=#000000;endArrow=blockThin;endFill=1;strokeColor=#000000;strokeWidth=1;" edge="1" parent="3" source="269" target="273">
                    <mxGeometry relative="1" as="geometry"/>
                </mxCell>
                <mxCell id="269" value="？" style="rounded=1;whiteSpace=wrap;html=1;fillColor=#E6E6E6;fontColor=#000000;fontSize=16;strokeColor=none;strokeWidth=2;" vertex="1" parent="3">
                    <mxGeometry x="250.5" y="1400" width="50" height="30" as="geometry"/>
                </mxCell>
                <mxCell id="270" value="&lt;div style=&quot;font-size: 14px&quot;&gt;&lt;div style=&quot;font-size: 14px&quot;&gt;&lt;div style=&quot;font-size: 14px&quot;&gt;&lt;div style=&quot;font-size: 14px&quot;&gt;桓惠王&lt;/div&gt;&lt;/div&gt;&lt;/div&gt;&lt;/div&gt;" style="text;html=1;align=center;verticalAlign=middle;resizable=0;points=[];autosize=1;strokeColor=none;fillColor=none;fontSize=14;fontColor=#000000;" vertex="1" parent="3">
                    <mxGeometry x="297.5" y="1405" width="60" height="20" as="geometry"/>
                </mxCell>
                <mxCell id="272" value="&lt;font color=&quot;#ffff00&quot;&gt;11&lt;/font&gt;" style="ellipse;whiteSpace=wrap;html=1;aspect=fixed;fontFamily=Helvetica;fontSize=10;fontColor=#ffffff;fillColor=#a20025;strokeColor=#6F0000;" vertex="1" parent="3">
                    <mxGeometry x="230" y="1475.25" width="19.5" height="19.5" as="geometry"/>
                </mxCell>
                <mxCell id="273" value="韩安" style="rounded=1;whiteSpace=wrap;html=1;fillColor=#E6E6E6;fontColor=#000000;fontSize=16;strokeColor=none;strokeWidth=2;" vertex="1" parent="3">
                    <mxGeometry x="250.5" y="1470" width="50" height="30" as="geometry"/>
                </mxCell>
            </root>
        </mxGraphModel>
    </diagram>
</mxfile>